<?xml version="1.0" encoding="utf-8"?>
<svg xmlns="http://www.w3.org/2000/svg" width="1024" height="1024" viewBox="0 0 1024 1024" role="img" aria-label="Heart analytics logo">
  <defs>
    <linearGradient id="grad1" x1="0" x2="1" y1="0" y2="1">
      <stop offset="0" stop-color="#8A2BE2"/>
      <stop offset="1" stop-color="#FF6A3D"/>
    </linearGradient>
    <linearGradient id="gradBars" x1="0" x2="0" y1="0" y2="1">
      <stop offset="0" stop-color="#FF9AEA"/>
      <stop offset="1" stop-color="#FFB56A"/>
    </linearGradient>
    <linearGradient id="gradBadge" x1="0" x2="1">
      <stop offset="0" stop-color="#36C3F0"/>
      <stop offset="1" stop-color="#00A6FF"/>
    </linearGradient>
    <filter id="softShadow" x="-50%" y="-50%" width="200%" height="200%">
      <feDropShadow dx="0" dy="8" stdDeviation="20" flood-color="#000" flood-opacity="0.08"/>
    </filter>
  </defs>

  <!-- Transparent background intentionally omitted so SVG is background-free -->

  <!-- Outer thin gradient ring -->
  <circle cx="512" cy="512" r="450" fill="none" stroke="url(#grad1)" stroke-width="6" opacity="0.9"/>

  <!-- Dashed inner ring -->
  <circle cx="512" cy="512" r="390" fill="none" stroke="#BFE9FF" stroke-width="8" stroke-dasharray="14 14" opacity="0.9"/>

  <!-- Main colored disc (gradient) -->
  <circle cx="512" cy="512" r="320" fill="url(#grad1)" />

  <!-- Heart shape (centered, white) -->
  <path d="M512 408c36-56 110-56 146 0 36 56 4 142-73 216-52 50-73 63-73 63s-21-13-73-63c-77-74-109-160-73-216 36-56 110-56 146 0z"
        fill="#FFFFFF" filter="url(#softShadow)" transform="translate(0,18)"/>

  <!-- Subtle geometric connections inside heart -->
  <g opacity="0.12" transform="translate(0,18)">
    <path d="M430 470 L512 420 L594 470" stroke="#FFFFFF" stroke-width="6" fill="none" stroke-linecap="round" stroke-linejoin="round"/>
    <circle cx="430" cy="470" r="6" fill="#FFFFFF"/>
    <circle cx="512" cy="420" r="6" fill="#FFFFFF"/>
    <circle cx="594" cy="470" r="6" fill="#FFFFFF"/>
  </g>

  <!-- Bar chart inside heart -->
  <g transform="translate(470,460)">
    <rect x="-40" y="18" width="24" height="82" rx="6" fill="url(#gradBars)"/>
    <rect x="-8"  y="6"  width="24" height="94" rx="6" fill="url(#gradBars)"/>
    <rect x="24"  y="0"  width="24" height="100" rx="6" fill="url(#gradBars)"/>
    <rect x="56"  y="12" width="24" height="88" rx="6" fill="url(#gradBars)"/>
  </g>

  <!-- Dotted path accent (behind heart, subtle) -->
  <path d="M360 560 q120 60 280 -20" fill="none" stroke="#FFFFFF" stroke-width="4" stroke-dasharray="6 8" opacity="0.12" transform="translate(0,18)"/>

  <!-- Small round badge with star at top-right of heart -->
  <g transform="translate(660,330)">
    <circle cx="0" cy="0" r="46" fill="url(#gradBadge)" />
    <g transform="translate(-0,-6)">
      <path d="M0,-18 L4,-4 L18,0 L4,4 L0,18 L-4,4 L-18,0 L-4,-4 Z" fill="#FFFFFF" opacity="0.95" transform="rotate(22) scale(0.55)"/>
      <!-- small sparkle (a bit offset) -->
      <path d="M10,-10 L12,-6 L16,-4 L12,-3 L10,1 L9,-3 L5,-4 L9,-6 Z" fill="#FFFFFF" opacity="0.9" transform="scale(0.5) translate(8,-6)"/>
    </g>
  </g>

  <!-- Inner soft highlight ring to echo original design -->
  <circle cx="512" cy="512" r="300" fill="none" stroke="#FFFFFF" stroke-width="6" opacity="0.06"/>

  <!-- Accessibility: title and description -->
  <title>Heart analytics icon</title>
  <desc>Transparent SVG icon of a white heart on a colorful gradient disc with a 4-bar chart and a blue badge, no background.</desc>
</svg>
